<?xml version="1.0" encoding="utf-8"?>
<!-- Generator: Adobe Illustrator 23.0.3, SVG Export Plug-In . SVG Version: 6.00 Build 0)  -->
<svg version="1.1" xmlns="http://www.w3.org/2000/svg" xmlns:xlink="http://www.w3.org/1999/xlink" x="0px" y="0px" width="400px"
	 height="70px" viewBox="0 0 400 70" enable-background="new 0 0 400 70" xml:space="preserve">
<g id="Layer_2">
</g>
<g id="Layer_1">
	<g>
		<g>
			<g>
				<path fill="#C81E30" d="M50.2007,37.8465c-1.6802-1.8829-3.6983-3.2638-6.0448-4.1426
					c-2.3465-0.869-5.3593-1.7477-9.0479-2.6168c-3.5438-0.7822-6.18-1.5836-7.8988-2.3851
					c-1.7284-0.8112-2.5975-2.0376-2.5975-3.6984c0-1.6512,0.7532-2.9934,2.2499-4.0072c1.4967-1.0043,3.8046-1.5161,6.9332-1.5161
					c3.8836,0,7.7599,0.9545,11.6415,2.8634c0.961,0.4726,2.1203,0.0499,2.5242-0.9418v0c1.6608-4.0846-0.6759-8.6906-4.9537-9.7721
					L42.92,11.6106C39.9652,10.8767,36.9524,10.5,33.8721,10.5c-4.4226,0-8.1692,0.676-11.2302,2.0086s-5.3495,3.1383-6.8656,5.4171
					s-2.2789,4.8281-2.2789,7.6284c0,3.2251,0.8401,5.8034,2.5203,7.7347c1.6802,1.9409,3.6887,3.341,6.0448,4.2198
					c2.3465,0.8691,5.3592,1.7477,9.0382,2.6168c2.3947,0.56,4.297,1.0622,5.6971,1.5256c1.4098,0.4538,2.5589,1.0719,3.4569,1.8252
					c0.898,0.7628,1.3519,1.7187,1.3519,2.8679c0,1.5642-0.7629,2.8195-2.2789,3.7658c-1.5257,0.9463-3.8722,1.4098-7.0491,1.4098
					c-2.8582,0-5.7068-0.4538-8.5651-1.3808c-2.4448-0.7873-4.6052-1.7951-6.4809-3.0296
					c-0.4827-0.3177-1.1349-0.1153-1.3696,0.4128h0c-2.0857,4.6157,0.3959,10.0038,5.2627,11.4233
					C24.6987,59.9785,28.3874,60.5,32.2112,60.5c4.4226,0,8.1692-0.6662,11.2592-1.9988c3.0803-1.3422,5.3978-3.1479,6.9332-5.4268
					c1.545-2.279,2.3175-4.7991,2.3175-7.5609C52.7211,42.298,51.881,39.7391,50.2007,37.8465z"/>
				<path fill="#C81E30" d="M71.5024,50.699V39.5074h22.4411v0c0-4.805-3.8952-8.7003-8.7003-8.7003H71.5024V20.3109h25.4152v0
					c0-4.9597-4.0206-8.9803-8.9803-8.9803H67.1475c-3.737,0-6.7594,3.032-6.7594,6.7594v41.5797h64.6581V50.699H71.5024z"/>
				<path fill="#C81E30" d="M117.8427,50.699L117.8427,50.699h-11.124v8.9706h37.4372v0c0-4.9543-4.0163-8.9706-8.9706-8.9706
					H117.8427z M117.8427,39.5074h22.4411v0c0-4.805-3.8952-8.7003-8.7003-8.7003h-13.7408V20.3109h25.4152v0
					c0-4.9597-4.0206-8.9803-8.9803-8.9803h-17.9026c-5.333,0-9.6562,4.3232-9.6562,9.6562v26.0621h3.5825
					C114.4662,47.0489,117.8427,43.6724,117.8427,39.5074L117.8427,39.5074z"/>
				<path fill="#C81E30" d="M207.4235,18.0706c-0.0097-3.7274-3.032-6.74-6.7594-6.74h-2.443l-17.8158,30.0405l-18.0958-30.0405
					c-5.1082,0-9.2507,4.1426-9.2507,9.2506v39.0884h10.4963V31.2899l14.1561,23.2716h5.0405l14.2236-23.8895l0.0676,28.9976
					h10.4963L207.4235,18.0706z"/>
				<path fill="#C81E30" d="M297.2458,20.3109L297.2458,20.3109c0-4.9597-4.0206-8.9803-8.9803-8.9803h-20.7898
					c-3.7331,0-6.7594,3.0263-6.7594,6.7594v28.959h3.5825c4.1651,0,7.5415-3.3765,7.5415-7.5415v0h22.4411v0
					c0-4.805-3.8952-8.7003-8.7003-8.7003h-13.7408V20.3109H297.2458z"/>
				<path fill="#C81E30" d="M298.1439,59.6696L298.1439,59.6696l-72.3735,0c-3.7331,0-6.7594-3.0263-6.7594-6.7594V11.3305h11.1819
					V50.554h58.8354C294.0627,50.554,298.1439,54.6352,298.1439,59.6696z"/>
				<path fill="#C81E30" d="M340.9209,37.8465c-1.6802-1.8829-3.6886-3.2638-6.0352-4.1426
					c-2.3464-0.869-5.3688-1.7477-9.0478-2.6168c-3.5439-0.7822-6.18-1.5836-7.9085-2.3851
					c-1.7284-0.8112-2.5879-2.0376-2.5879-3.6984c0-1.6512,0.7436-2.9934,2.2403-4.0072c1.4968-1.0043,3.8142-1.5161,6.9428-1.5161
					c3.9018,0,7.8109,0.9676,11.7145,2.9028c0.916,0.4541,2.0242,0.0514,2.4127-0.8942v0c0.3668-0.9077,0.5407-1.8444,0.5407-2.7618
					c0-3.254-2.1823-6.2766-5.5523-7.1165c-2.9451-0.7339-5.9579-1.1106-9.0479-1.1106c-4.413,0-8.1595,0.676-11.2206,2.0086
					s-5.3496,3.1383-6.8752,5.4171c-1.5161,2.2789-2.279,4.8281-2.279,7.6284c0,3.2251,0.8402,5.8034,2.5204,7.7347
					c1.6898,1.9409,3.6983,3.341,6.0448,4.2198c2.3464,0.8691,5.3689,1.7477,9.0479,2.6168c2.3947,0.56,4.297,1.0622,5.6972,1.5256
					c1.4001,0.4538,2.5588,1.0719,3.4569,1.8252c0.8981,0.7628,1.3422,1.7187,1.3422,2.8679c0,1.5642-0.7532,2.8195-2.279,3.7658
					c-1.5159,0.9463-3.8625,1.4098-7.0393,1.4098c-2.8583,0-5.7165-0.4538-8.5651-1.3808c-2.4481-0.7857-4.6058-1.791-6.4731-3.0221
					c-0.4879-0.3216-1.1457-0.1269-1.3871,0.4053l0,0c-2.0761,4.6157,0.4056,10.0038,5.2724,11.4233
					c3.5631,1.0332,7.2615,1.5546,11.0853,1.5546c4.4128,0,8.1691-0.6662,11.2494-1.9988c3.0901-1.3422,5.3979-3.1479,6.9429-5.4268
					c1.545-2.279,2.3175-4.7991,2.3175-7.5609C343.4509,42.298,342.6107,39.7391,340.9209,37.8465z"/>
				<path fill="#C81E30" d="M384.9824,37.8465c-1.6802-1.8829-3.6888-3.2638-6.0448-4.1426
					c-2.3465-0.869-5.3593-1.7477-9.0383-2.6168c-3.5534-0.7822-6.1799-1.5836-7.9084-2.3851
					c-1.7285-0.8112-2.5878-2.0376-2.5878-3.6984c0-1.6512,0.7436-2.9934,2.2402-4.0072c1.4966-1.0043,3.8046-1.5161,6.9429-1.5161
					c3.9026,0,7.8129,0.9681,11.7174,2.9043c0.9128,0.4526,2.0171,0.0484,2.3999-0.8957v0c0.3671-0.9077,0.5408-1.854,0.5408-2.7715
					c0-3.2444-2.1727-6.2669-5.5427-7.1069c-2.9452-0.7339-5.9675-1.1106-9.0479-1.1106c-4.4225,0-8.1596,0.676-11.2206,2.0086
					c-3.0611,1.3326-5.3593,3.1383-6.8752,5.4171c-1.516,2.2789-2.2788,4.8281-2.2788,7.6284c0,3.2251,0.84,5.8034,2.5203,7.7347
					c1.6802,1.9409,3.6983,3.341,6.0447,4.2198c2.3466,0.8691,5.3593,1.7477,9.048,2.6168c2.3947,0.56,4.2873,1.0622,5.6971,1.5256
					c1.4002,0.4538,2.5494,1.0719,3.4474,1.8252c0.8979,0.7628,1.3519,1.7187,1.3519,2.8679c0,1.5642-0.7629,2.8195-2.2789,3.7658
					c-1.5258,0.9463-3.8722,1.4098-7.0491,1.4098c-2.8485,0-5.7067-0.4538-8.5554-1.3808
					c-2.4114-0.7739-4.5409-1.7608-6.3945-2.9667c-0.5354-0.3483-1.2523-0.1362-1.514,0.4464h0
					c-2.0566,4.5674,0.396,9.8976,5.2049,11.2979l0.1061,0.0289c3.5729,1.0332,7.2615,1.5546,11.0853,1.5546
					c4.4226,0,8.1693-0.6662,11.2593-1.9988c3.0803-1.3422,5.3977-3.1479,6.9427-5.4268c1.5353-2.279,2.3077-4.7991,2.3077-7.5609
					C387.5025,42.298,386.6626,39.7391,384.9824,37.8465z"/>
			</g>
		</g>
	</g>
</g>
</svg>
